<svg version="1.1" id="Layer_1" xmlns="http://www.w3.org/2000/svg" xmlns:xlink="http://www.w3.org/1999/xlink" x="0px" y="0px"
	 width="100%" viewBox="0 0 413 413" enable-background="new 0 0 413 413" xml:space="preserve">
<path fill="#FFFEFE" opacity="1.000000" stroke="none" 
	d="
M227.000000,414.000000 
	C151.333328,414.000000 76.166664,414.000000 1.000000,414.000000 
	C1.000000,276.333344 1.000000,138.666672 1.000000,1.000000 
	C138.666672,1.000000 276.333344,1.000000 414.000000,1.000000 
	C414.000000,138.666672 414.000000,276.333344 414.000000,414.000000 
	C351.833344,414.000000 289.666656,414.000000 227.000000,414.000000 
M124.124161,256.525757 
	C124.404274,256.688904 124.684380,256.852051 125.416077,257.196869 
	C125.697762,257.379120 125.904114,257.624634 126.089935,258.634521 
	C127.352676,260.544739 128.615417,262.454926 129.206467,264.576385 
	C127.304764,264.492767 125.403053,264.409119 122.697289,264.179810 
	C122.253372,264.966705 121.809456,265.753632 121.561272,267.247223 
	C122.693802,270.437561 119.741524,274.649170 124.464249,277.587677 
	C125.973213,277.417908 127.482185,277.248138 129.918350,276.937195 
	C135.275116,276.935455 140.631866,276.933746 146.379837,277.481506 
	C147.927811,276.684174 149.475769,275.886841 151.269211,274.836670 
	C151.269211,274.836670 151.615906,274.773529 152.396805,274.872406 
	C153.176437,273.767426 153.956070,272.662445 154.767776,271.234161 
	C154.767776,271.234161 154.989594,270.996796 155.744095,270.878296 
	C158.871429,266.906189 158.718643,254.832031 155.400040,251.565842 
	C154.908432,251.082001 153.884476,251.139038 152.641068,250.757172 
	C152.427734,250.504044 152.214417,250.250931 151.738007,249.481720 
	C151.379181,249.384140 151.020370,249.286560 150.301071,249.175812 
	C150.301071,249.175812 150.008392,248.965027 149.825089,248.182648 
	C147.825150,247.786713 145.776184,246.891357 143.833832,247.082062 
	C135.794724,247.871307 135.034622,244.143372 135.033157,238.107635 
	C135.032837,236.783478 135.065964,235.459335 135.045288,234.047562 
	C135.045288,234.047562 135.135880,234.078293 136.053192,234.070984 
	C141.460663,234.038818 146.873993,234.132202 152.271149,233.879715 
	C153.506699,233.821915 154.686493,232.572403 155.994034,231.977478 
	C155.994034,231.977478 155.871033,231.896561 156.679688,231.821716 
	C158.305008,228.094269 159.805695,224.377808 155.351517,221.059158 
	C155.351517,221.059158 155.036179,220.814774 154.827087,220.048492 
	C146.523529,220.009003 138.219498,219.926117 129.917267,220.013138 
	C129.259430,220.020035 128.613953,221.205231 127.547623,222.136246 
	C127.219818,222.207520 126.892006,222.278809 125.879662,222.350143 
	C125.664803,222.720139 125.449951,223.090149 125.039093,223.936478 
	C124.664032,224.277756 124.288971,224.619049 123.277176,225.037598 
	C122.801170,226.344208 122.325165,227.650833 121.877426,229.751602 
	C121.752655,230.799774 121.627876,231.847931 120.819466,232.987122 
	C120.485123,234.252823 119.940025,235.508377 119.878433,236.787216 
	C119.821953,237.960022 120.903160,239.729599 120.420258,240.250000 
	C117.724365,243.155273 120.095169,244.928467 121.752495,247.786469 
	C121.789833,249.202011 121.827171,250.617569 121.395309,252.420395 
	C122.249397,253.621399 123.103485,254.822418 124.003540,256.003357 
	C124.003540,256.003357 123.977898,256.046570 124.124161,256.525757 
M308.018707,276.054840 
	C308.018707,276.054840 308.121704,276.027985 308.887787,275.830109 
	C309.165009,269.143768 309.442230,262.457397 309.949432,255.834305 
	C309.949432,255.834305 309.734589,255.730682 310.138092,255.813812 
	C310.251617,255.741257 310.470306,255.619812 310.462769,255.603546 
	C310.362946,255.388901 310.231293,255.189102 310.121124,254.333267 
	C310.066315,253.903076 310.011505,253.472870 310.014771,252.101364 
	C309.986694,247.640701 310.141296,243.169022 309.872864,238.722870 
	C309.657227,235.151215 310.680725,233.529144 314.545258,233.810440 
	C316.002289,233.916489 317.552765,232.738495 319.336487,231.627945 
	C319.453522,231.471252 319.570587,231.314545 320.269806,230.755432 
	C320.061279,227.781448 319.852753,224.807465 319.289917,221.455795 
	C319.178162,221.324188 319.066437,221.192596 318.801727,220.272247 
	C318.289764,219.909775 317.780487,219.235519 317.265411,219.231033 
	C307.651489,219.147110 298.036316,219.097122 288.423309,219.205307 
	C287.622711,219.214310 286.835388,220.403580 285.608459,221.520599 
	C285.434357,222.361237 285.260223,223.201889 284.307678,224.050949 
	C283.273224,224.015839 282.238770,223.980743 281.022675,223.305511 
	C280.689240,222.504715 280.355774,221.703934 279.834656,220.124847 
	C279.303833,219.784973 278.775360,219.152832 278.241882,219.148590 
	C268.615540,219.072220 258.988037,219.025604 249.362839,219.141693 
	C248.587921,219.151031 247.827850,220.390366 247.000610,221.000000 
	C247.000610,221.000000 247.057266,221.061478 246.264114,221.170227 
	C244.714600,224.900436 243.490250,228.610626 247.001373,232.016266 
	C247.001373,232.016266 246.961258,232.074249 247.125244,232.853104 
	C248.460632,233.229523 249.835556,234.025208 251.124008,233.903748 
	C254.982010,233.540009 256.393402,234.924820 256.142578,238.877243 
	C255.842453,243.606537 256.130219,248.373123 256.014618,253.070648 
	C256.014618,253.070648 256.148834,253.154022 255.538574,253.109268 
	C255.193207,253.498291 254.847839,253.887299 254.502457,254.276306 
	C255.019974,254.506393 255.537506,254.736481 256.293304,255.168793 
	C256.293304,255.168793 256.359283,255.474289 256.178802,256.476501 
	C256.140808,258.598083 255.938980,260.732269 256.100708,262.838531 
	C256.389954,266.604614 256.898285,270.353943 257.639374,274.769196 
	C258.763428,275.530975 259.887512,276.292755 261.576447,277.623474 
	C270.281769,278.645721 270.720825,278.100922 271.031281,269.766663 
	C271.213348,264.879639 272.178558,260.023224 272.747772,255.147919 
	C272.841614,254.344162 272.758392,253.509033 272.674438,252.696930 
	C272.122009,247.352081 271.462219,242.015778 271.069550,236.659668 
	C271.009827,235.845352 272.283417,234.134750 272.723206,234.204620 
	C277.659119,234.989090 281.453796,232.757172 285.241669,230.469971 
	C285.289093,230.827484 285.336517,231.185013 285.402374,232.347916 
	C288.450806,233.160507 291.499237,233.973099 295.087280,234.929535 
	C295.087280,240.852722 295.087280,246.980362 294.984497,253.740692 
	C295.094208,254.366974 295.203918,254.993256 295.134094,256.599579 
	C295.118134,261.751099 294.974884,266.907532 295.173248,272.050781 
	C295.224640,273.384430 296.345062,274.676910 297.321808,276.300171 
	C297.555725,276.506042 297.801544,276.696564 298.494629,277.494263 
	C300.656677,277.327332 302.818756,277.160400 305.626434,276.901642 
	C306.060944,276.905243 306.495422,276.908844 307.446594,276.946381 
	C307.641602,276.684418 307.836639,276.422455 308.018707,276.054840 
M225.189697,262.011139 
	C223.149673,262.003143 221.109634,261.995148 219.045792,261.326202 
	C219.049835,260.885345 219.053864,260.444519 219.837204,259.807983 
	C220.200317,259.297943 220.876282,258.790344 220.880310,258.277435 
	C220.961594,247.984848 221.009003,237.691193 220.901016,227.399460 
	C220.892532,226.592209 219.691666,225.797455 219.018600,224.241287 
	C218.339615,223.166946 217.660629,222.092621 217.000000,221.000000 
	C217.000000,221.000000 216.982590,221.018631 216.840439,220.240265 
	C213.447372,218.558487 210.094833,217.667007 206.565094,220.971283 
	C206.565094,220.971283 206.135818,221.075226 205.316513,221.166840 
	C204.884613,222.811264 204.102158,224.450821 204.079178,226.100937 
	C203.954285,235.070862 204.016739,244.043411 203.947281,253.664429 
	C204.041794,254.307922 204.136292,254.951416 204.080078,256.566772 
	C204.064896,259.214966 203.428467,262.061432 204.194000,264.460480 
	C205.121460,267.367065 203.081757,271.916443 208.554672,273.121490 
	C208.821915,273.308594 208.990906,273.561340 209.118866,274.634064 
	C209.944748,274.952759 210.770645,275.271423 212.090973,275.641235 
	C212.417313,275.718536 212.719574,275.850861 213.188828,276.820740 
	C220.175797,276.759186 227.163193,276.717682 234.148193,276.565369 
	C234.437820,276.559021 234.704849,275.516083 235.194855,274.741425 
	C235.194855,274.741425 235.496094,274.720062 236.130447,274.739044 
	C236.456375,274.242615 236.782288,273.746185 237.353058,272.762726 
	C237.625687,272.526794 237.898315,272.290833 238.622482,271.822815 
	C238.731796,271.514893 238.841110,271.206970 239.001083,270.442261 
	C239.001083,270.442261 239.259567,270.062225 239.871170,269.945312 
	C239.934540,268.967773 239.997910,267.990204 239.968369,266.333679 
	C240.045242,265.886108 240.122116,265.438507 240.725067,264.414032 
	C241.416748,261.256317 242.205841,258.114044 242.711075,254.926773 
	C242.802856,254.347809 241.733429,253.584793 241.091248,252.921356 
	C241.091248,252.921356 241.107574,252.812775 241.104828,251.901932 
	C241.240723,243.202744 241.553574,234.500153 241.385406,225.806839 
	C241.344452,223.689240 239.966003,219.991150 238.781891,219.812820 
	C235.631058,219.338318 232.250916,220.386444 228.671844,221.062378 
	C228.671844,221.062378 228.304123,221.120361 227.535416,221.499451 
	C227.339325,233.099533 227.178284,244.700439 226.912384,256.298920 
	C226.868362,258.218689 226.365707,260.127930 225.189697,262.011139 
M163.991089,221.006683 
	C163.991089,221.006683 163.950089,220.977386 163.150742,221.130295 
	C162.764832,222.138062 162.046463,223.145264 162.044800,224.153671 
	C162.029358,233.552475 162.137024,242.951492 162.108612,252.725128 
	C162.108612,252.725128 161.798141,252.957642 161.103027,253.109726 
	C160.793304,253.472519 160.187790,253.861725 160.217484,254.194214 
	C160.833298,261.091370 161.497131,267.984741 162.250717,274.867981 
	C162.299469,275.313141 163.149445,275.670593 163.954651,276.329803 
	C163.954651,276.329803 164.117905,276.715820 164.501328,277.439850 
	C167.663132,277.261536 170.824951,277.083221 174.303665,276.564850 
	C174.526489,276.347321 174.770767,276.157379 175.824280,275.835724 
	C176.205246,272.374146 176.433441,268.885956 177.030746,265.462128 
	C177.335526,263.715210 178.302734,262.083923 179.777237,260.205200 
	C181.146103,260.290802 182.514969,260.376404 183.949783,261.324554 
	C183.978500,263.967102 184.028061,266.609589 184.032150,269.252167 
	C184.046432,278.467285 187.023422,280.393646 196.371857,276.640106 
	C196.642548,276.434753 196.913239,276.229401 197.952530,275.829041 
	C198.295349,275.123627 198.869781,274.441895 198.944763,273.709076 
	C199.604645,267.259216 200.209091,260.802765 200.692596,254.337997 
	C200.722672,253.935852 199.596878,253.447266 198.999390,253.000610 
	C198.999390,253.000610 199.001282,252.991547 199.033783,252.056046 
	C199.019669,243.129288 199.094803,234.200577 198.900223,225.277756 
	C198.869186,223.854385 197.628052,222.457382 196.997635,220.998611 
	C196.997635,220.998611 196.953552,221.053497 196.835587,220.267929 
	C193.453613,218.493469 190.115295,217.729385 186.453217,221.103882 
	C186.129242,221.375107 185.805283,221.646332 184.803452,222.246536 
	C184.547974,228.822998 184.288681,235.399307 184.038986,241.975983 
	C183.947952,244.373672 184.724670,247.024567 180.607117,247.074295 
	C176.657333,247.121979 176.936325,244.786423 176.954453,242.199600 
	C176.994064,236.547653 177.106720,230.889191 176.865356,225.247238 
	C176.805435,223.846054 175.510010,222.497711 174.380447,221.022812 
	C174.380447,221.022812 174.044434,220.779510 173.830521,220.039078 
	C170.413010,218.899460 166.954056,217.315323 163.991089,221.006683 
M109.719154,268.464142 
	C109.722366,231.976410 109.625130,195.488068 109.846306,159.001663 
	C109.876526,154.016251 108.302559,152.969086 103.631714,153.007278 
	C77.642067,153.219742 51.648788,153.221313 25.659273,152.999771 
	C20.929556,152.959442 19.427439,154.175476 19.450485,159.053696 
	C19.633106,197.706589 19.617048,236.361069 19.446177,275.014099 
	C19.426264,279.518616 20.874849,280.609955 25.173824,280.577759 
	C49.664330,280.394318 74.156929,280.486359 98.648811,280.492462 
	C109.716042,280.495209 109.716042,280.503326 109.719154,268.464142 
M163.064011,188.874954 
	C163.064270,192.532547 163.208588,196.197510 163.022446,199.845596 
	C162.851318,203.199768 163.943344,204.695724 167.545135,204.556717 
	C173.355179,204.332474 179.182343,204.598419 184.998993,204.486710 
	C192.898270,204.335022 197.282059,200.059662 197.455750,192.114868 
	C197.538040,188.350586 196.750259,184.570297 196.786545,180.801392 
	C196.855042,173.686417 197.591507,166.563873 197.381363,159.464279 
	C197.182434,152.743011 192.504440,148.520111 185.753250,148.319489 
	C179.441116,148.131912 173.117706,148.349640 166.802933,148.215805 
	C163.914154,148.154572 163.033997,149.469376 163.045807,152.128738 
	C163.098877,164.077866 163.065994,176.027374 163.064011,188.874954 
M126.056313,204.506439 
	C132.051346,204.499466 138.049072,204.601807 144.040665,204.454636 
	C149.974258,204.308884 154.814423,201.348022 155.593887,196.695251 
	C157.564301,184.933319 156.659256,174.305542 140.637909,175.625320 
	C139.980591,175.679459 139.309540,175.557907 138.644440,175.528061 
	C135.349167,175.380219 133.848511,173.685440 134.043854,170.372757 
	C134.141647,168.714493 134.056747,167.042999 134.006134,165.378967 
	C133.906021,162.088821 135.400787,160.409790 138.769897,160.447098 
	C141.933350,160.482147 145.097717,160.425552 148.261703,160.419937 
	C156.493271,160.405334 157.287689,159.655182 156.137238,151.683167 
	C155.955017,150.420425 154.129944,148.459900 153.007355,148.419800 
	C145.858917,148.164459 138.679749,148.091904 131.540115,148.488464 
	C126.091438,148.791122 121.859489,153.692123 121.616211,159.260666 
	C121.471008,162.584229 121.621582,165.920212 121.618820,169.250580 
	C121.605484,185.328537 123.235603,186.967087 139.456177,187.868652 
	C140.850784,187.946182 142.171082,189.360626 143.525894,190.154022 
	C142.063980,190.870956 140.637390,192.102951 139.133377,192.206085 
	C134.989761,192.490234 130.812668,192.245087 126.650948,192.323151 
	C124.435043,192.364716 121.219513,191.758331 121.692726,195.361618 
	C122.111511,198.550415 118.761513,203.530518 126.056313,204.506439 
M385.571320,232.768738 
	C389.570435,232.764954 393.579468,232.583176 397.566040,232.804901 
	C402.002136,233.051636 401.961731,230.215363 401.693146,227.248337 
	C401.441101,224.464005 403.281311,220.461227 397.757843,220.546524 
	C388.928589,220.682907 380.095245,220.641159 371.264679,220.560043 
	C368.246368,220.532333 367.165131,221.785217 367.243073,224.771439 
	C367.399597,230.766052 366.999542,236.786057 367.377716,242.760880 
	C367.742432,248.522354 365.677460,254.106522 367.092957,260.020233 
	C368.074005,264.118927 367.025146,268.666046 367.447113,272.957367 
	C367.585144,274.361359 369.461182,276.688751 370.604553,276.726807 
	C379.925446,277.037201 389.263306,277.026306 398.591339,276.856781 
	C403.358704,276.770142 401.305725,272.831360 401.697754,270.401520 
	C402.405060,266.017059 400.865204,263.880432 395.993469,264.369293 
	C392.034698,264.766541 387.990356,264.624847 384.011414,264.339417 
	C382.578278,264.236603 381.225098,263.018372 379.835449,262.309174 
	C381.297150,261.661804 382.713623,260.865601 384.231842,260.404266 
	C386.179535,259.812469 389.134796,260.165497 390.036621,258.929688 
	C393.254669,254.519836 389.771515,248.247635 384.416321,248.078323 
	C382.354584,248.013153 379.741730,248.672119 379.693878,245.267197 
	C379.638336,241.316238 379.680908,237.363907 379.680908,233.131470 
	C381.692932,232.984116 383.141541,232.878006 385.571320,232.768738 
M360.921783,267.899139 
	C361.058777,264.838135 359.143005,264.428345 356.682465,264.456726 
	C350.914093,264.523254 345.144470,264.477997 338.834412,264.477997 
	C338.834412,258.052643 338.834045,252.337860 338.834534,246.623077 
	C338.835052,240.624100 338.834229,234.625137 338.837982,228.626160 
	C338.843201,220.298599 338.289825,219.656693 330.176300,220.706528 
	C328.824646,220.881424 326.667816,222.909348 326.650909,224.105957 
	C326.420685,240.422760 326.515808,256.743988 326.492950,273.064056 
	C326.489136,275.767517 327.622375,276.968384 330.408356,276.941528 
	C339.406006,276.854919 348.409424,277.035858 357.398010,276.736023 
	C358.609802,276.695618 360.138397,274.673462 360.804260,273.237061 
	C361.376831,272.001770 360.926575,270.292389 360.921783,267.899139 
z"/>
<path fill="#CD403C" opacity="1.000000" stroke="none" 
	d="
M109.718979,268.956299 
	C109.716042,280.503326 109.716042,280.495209 98.648811,280.492462 
	C74.156929,280.486359 49.664330,280.394318 25.173824,280.577759 
	C20.874849,280.609955 19.426264,279.518616 19.446177,275.014099 
	C19.617048,236.361069 19.633106,197.706589 19.450485,159.053696 
	C19.427439,154.175476 20.929556,152.959442 25.659273,152.999771 
	C51.648788,153.221313 77.642067,153.219742 103.631714,153.007278 
	C108.302559,152.969086 109.876526,154.016251 109.846306,159.001663 
	C109.625130,195.488068 109.722366,231.976410 109.718979,268.956299 
M98.325272,175.087753 
	C97.472351,172.218872 96.513504,169.376221 95.794685,166.474136 
	C94.988930,163.221054 93.257172,162.026459 89.758011,162.174103 
	C82.439041,162.482880 75.053688,162.767609 67.776314,162.134476 
	C57.893929,161.274719 50.973469,164.314590 43.387226,171.492599 
	C34.863674,179.557480 31.471338,187.541565 32.827454,198.482956 
	C33.131256,200.934113 32.214531,204.453232 33.538830,205.706741 
	C40.221851,212.032486 44.820457,221.119141 55.509270,222.449158 
	C60.889431,223.118607 66.399345,224.228073 71.370071,226.294449 
	C76.495537,228.425156 78.415375,235.494278 76.771782,241.931808 
	C75.412766,247.254715 70.493706,251.532639 64.933846,251.619583 
	C55.162113,251.772400 45.263035,252.715042 36.054520,247.998795 
	C34.549828,247.228149 32.702347,247.126801 30.335039,246.551193 
	C32.704227,253.925812 34.952236,260.481232 36.880779,267.129333 
	C37.731327,270.061371 39.259403,271.023254 42.240158,270.989563 
	C54.236736,270.854034 66.238037,271.048859 78.231567,270.813934 
	C80.285416,270.773743 82.724823,269.694214 84.272560,268.301697 
	C89.591446,263.516296 94.716057,258.494720 99.634735,253.298141 
	C100.952034,251.906433 101.848549,249.599487 101.943443,247.663925 
	C102.236862,241.679260 101.747971,235.650955 102.145302,229.678345 
	C102.468231,224.824280 101.259506,220.871841 97.637505,217.703903 
	C93.535622,214.116226 89.836655,209.644455 85.097374,207.324036 
	C80.017059,204.836655 73.958397,204.265732 68.275139,203.112595 
	C61.413803,201.720383 57.389034,197.902176 57.697449,192.670273 
	C58.098228,185.871475 63.117638,180.923874 70.015404,180.841080 
	C80.132545,180.719666 90.362679,179.911713 99.872093,184.672653 
	C100.205307,184.839493 100.752159,184.579605 101.538963,184.472305 
	C100.486061,181.456589 99.507301,178.653214 98.325272,175.087753 
z"/>
<path fill="#CE403C" opacity="1.000000" stroke="none" 
	d="
M163.064056,188.425842 
	C163.065994,176.027374 163.098877,164.077866 163.045807,152.128738 
	C163.033997,149.469376 163.914154,148.154572 166.802933,148.215805 
	C173.117706,148.349640 179.441116,148.131912 185.753250,148.319489 
	C192.504440,148.520111 197.182434,152.743011 197.381363,159.464279 
	C197.591507,166.563873 196.855042,173.686417 196.786545,180.801392 
	C196.750259,184.570297 197.538040,188.350586 197.455750,192.114868 
	C197.282059,200.059662 192.898270,204.335022 184.998993,204.486710 
	C179.182343,204.598419 173.355179,204.332474 167.545135,204.556717 
	C163.943344,204.695724 162.851318,203.199768 163.022446,199.845596 
	C163.208588,196.197510 163.064270,192.532547 163.064056,188.425842 
M181.386414,160.165512 
	C180.230743,160.172577 178.703842,159.720261 178.001297,160.288025 
	C176.765137,161.287018 175.063858,163.078674 175.266586,164.239975 
	C175.943741,168.118484 172.337265,173.548050 177.350891,175.683807 
	C183.024292,178.100632 185.315399,175.841370 185.334564,169.597900 
	C185.341156,167.451675 185.661362,165.224152 185.178497,163.190430 
	C184.901306,162.023010 183.300262,161.169937 181.386414,160.165512 
M181.183670,192.761520 
	C184.034637,192.864334 187.070801,191.953781 184.829300,188.863235 
	C183.685211,187.285843 179.457184,187.626175 176.663330,187.789215 
	C175.966797,187.829849 175.426132,190.541626 174.510391,192.761154 
	C177.407074,192.761154 178.876404,192.761154 181.183670,192.761520 
z"/>
<path fill="#CD433F" opacity="1.000000" stroke="none" 
	d="
M125.619835,204.504120 
	C118.761513,203.530518 122.111511,198.550415 121.692726,195.361618 
	C121.219513,191.758331 124.435043,192.364716 126.650948,192.323151 
	C130.812668,192.245087 134.989761,192.490234 139.133377,192.206085 
	C140.637390,192.102951 142.063980,190.870956 143.525894,190.154022 
	C142.171082,189.360626 140.850784,187.946182 139.456177,187.868652 
	C123.235603,186.967087 121.605484,185.328537 121.618820,169.250580 
	C121.621582,165.920212 121.471008,162.584229 121.616211,159.260666 
	C121.859489,153.692123 126.091438,148.791122 131.540115,148.488464 
	C138.679749,148.091904 145.858917,148.164459 153.007355,148.419800 
	C154.129944,148.459900 155.955017,150.420425 156.137238,151.683167 
	C157.287689,159.655182 156.493271,160.405334 148.261703,160.419937 
	C145.097717,160.425552 141.933350,160.482147 138.769897,160.447098 
	C135.400787,160.409790 133.906021,162.088821 134.006134,165.378967 
	C134.056747,167.042999 134.141647,168.714493 134.043854,170.372757 
	C133.848511,173.685440 135.349167,175.380219 138.644440,175.528061 
	C139.309540,175.557907 139.980591,175.679459 140.637909,175.625320 
	C156.659256,174.305542 157.564301,184.933319 155.593887,196.695251 
	C154.814423,201.348022 149.974258,204.308884 144.040665,204.454636 
	C138.049072,204.601807 132.051346,204.499466 125.619835,204.504120 
z"/>
<path fill="#CE4642" opacity="1.000000" stroke="none" 
	d="
M385.080750,232.770325 
	C383.141541,232.878006 381.692932,232.984116 379.680908,233.131470 
	C379.680908,237.363907 379.638336,241.316238 379.693878,245.267197 
	C379.741730,248.672119 382.354584,248.013153 384.416321,248.078323 
	C389.771515,248.247635 393.254669,254.519836 390.036621,258.929688 
	C389.134796,260.165497 386.179535,259.812469 384.231842,260.404266 
	C382.713623,260.865601 381.297150,261.661804 379.835449,262.309174 
	C381.225098,263.018372 382.578278,264.236603 384.011414,264.339417 
	C387.990356,264.624847 392.034698,264.766541 395.993469,264.369293 
	C400.865204,263.880432 402.405060,266.017059 401.697754,270.401520 
	C401.305725,272.831360 403.358704,276.770142 398.591339,276.856781 
	C389.263306,277.026306 379.925446,277.037201 370.604553,276.726807 
	C369.461182,276.688751 367.585144,274.361359 367.447113,272.957367 
	C367.025146,268.666046 368.074005,264.118927 367.092957,260.020233 
	C365.677460,254.106522 367.742432,248.522354 367.377716,242.760880 
	C366.999542,236.786057 367.399597,230.766052 367.243073,224.771439 
	C367.165131,221.785217 368.246368,220.532333 371.264679,220.560043 
	C380.095245,220.641159 388.928589,220.682907 397.757843,220.546524 
	C403.281311,220.461227 401.441101,224.464005 401.693146,227.248337 
	C401.961731,230.215363 402.002136,233.051636 397.566040,232.804901 
	C393.579468,232.583176 389.570435,232.764954 385.080750,232.770325 
z"/>
<path fill="#CD413D" opacity="1.000000" stroke="none" 
	d="
M174.044434,220.779510 
	C174.044434,220.779510 174.380447,221.022812 174.634888,221.531494 
	C174.952301,229.512497 175.180237,236.988602 175.009125,244.455551 
	C174.922638,248.230286 177.001404,248.550018 179.739380,248.233200 
	C182.196075,247.948914 185.894058,249.709610 185.810059,244.806610 
	C185.679337,237.177277 185.588852,229.547272 185.481323,221.917542 
	C185.805283,221.646332 186.129242,221.375107 187.145096,220.992798 
	C190.875839,220.938995 193.914688,220.996246 196.953552,221.053497 
	C196.953552,221.053497 196.997635,220.998611 197.023682,221.486481 
	C197.115173,230.381363 197.076401,238.791428 197.324020,247.193085 
	C197.381424,249.140686 198.416229,251.059494 199.001282,252.991547 
	C199.001282,252.991547 198.999390,253.000610 198.968414,253.388168 
	C198.369766,256.120544 197.434341,258.446136 197.310318,260.814178 
	C197.045425,265.872498 197.200760,270.952789 197.183929,276.024078 
	C196.913239,276.229401 196.642548,276.434753 195.735016,276.714478 
	C185.286789,276.497894 185.778763,278.554749 185.809555,267.110748 
	C185.813965,265.474304 185.933456,263.806702 185.649475,262.216034 
	C185.530136,261.547577 184.499954,261.041748 183.883835,260.461975 
	C182.514969,260.376404 181.146103,260.290802 178.989838,260.136108 
	C175.306091,259.695709 175.030304,261.507690 175.054428,263.719177 
	C175.099075,267.810577 175.047821,271.903015 175.036514,275.995026 
	C174.770767,276.157379 174.526489,276.347321 173.698395,276.671631 
	C170.101395,276.757538 167.109650,276.736694 164.117905,276.715820 
	C164.117905,276.715820 163.954651,276.329803 163.830048,275.728149 
	C163.069687,267.736877 162.433914,260.347260 161.798141,252.957642 
	C161.798141,252.957642 162.108612,252.725128 162.470169,252.284607 
	C163.097137,249.925613 163.552765,248.011337 163.595062,246.087982 
	C163.779053,237.719223 163.842712,229.347824 163.950089,220.977386 
	C163.950089,220.977386 163.991089,221.006683 164.443008,220.998398 
	C167.944763,220.919907 170.994598,220.849716 174.044434,220.779510 
z"/>
<path fill="#CD433F" opacity="1.000000" stroke="none" 
	d="
M209.061646,273.879791 
	C208.990906,273.561340 208.821915,273.308594 208.258377,272.647522 
	C207.276154,268.551117 206.653061,264.915161 205.878998,261.311615 
	C205.463501,259.377289 204.788620,257.498657 204.230789,255.594910 
	C204.136292,254.951416 204.041794,254.307922 204.344955,253.181076 
	C205.127655,250.803757 205.804947,248.916321 205.847565,247.014679 
	C206.041367,238.370377 206.056458,229.722092 206.135818,221.075226 
	C206.135818,221.075226 206.565094,220.971283 207.204865,220.953033 
	C210.890625,220.962738 213.936600,220.990677 216.982590,221.018616 
	C216.982590,221.018631 217.000000,221.000000 217.057846,221.473099 
	C217.188431,223.928787 217.320633,225.911255 217.324020,227.893967 
	C217.342361,238.655457 217.278687,249.417435 217.376602,260.178040 
	C217.392609,261.938141 216.233063,264.912109 220.508987,264.409241 
	C222.586975,264.427002 224.251831,264.390289 226.226227,264.495544 
	C227.029800,263.058411 227.928421,261.485840 227.954071,259.899170 
	C228.163010,246.974396 228.208725,234.046982 228.304123,221.120361 
	C228.304123,221.120361 228.671844,221.062378 229.269852,221.011658 
	C231.023468,220.973724 232.179077,220.998322 233.334671,220.997345 
	C239.806488,220.991867 239.810150,220.989746 239.817734,227.509491 
	C239.825592,234.279388 239.743179,241.051025 239.886963,247.817947 
	C239.922501,249.490784 240.681274,251.148239 241.107574,252.812775 
	C241.107574,252.812775 241.091248,252.921356 241.116089,253.340607 
	C240.826935,257.503571 240.512955,261.247253 240.198975,264.990936 
	C240.122116,265.438507 240.045242,265.886108 239.758514,266.885406 
	C239.452301,268.312164 239.355927,269.187195 239.259567,270.062225 
	C239.259567,270.062225 239.001083,270.442261 238.742950,270.777832 
	C238.380188,271.427216 238.275558,271.741058 238.170929,272.054871 
	C237.898315,272.290833 237.625687,272.526794 236.943420,273.057129 
	C236.187881,273.807739 235.841995,274.263916 235.496094,274.720062 
	C235.496094,274.720062 235.194855,274.741425 234.699646,274.878540 
	C227.135544,275.356506 220.066635,275.697388 212.997742,276.038239 
	C212.719574,275.850861 212.417313,275.718536 211.676910,275.344910 
	C210.529129,274.658997 209.795380,274.269409 209.061646,273.879791 
z"/>
<path fill="#CC423E" opacity="1.000000" stroke="none" 
	d="
M123.501343,264.325500 
	C125.403053,264.409119 127.304764,264.492767 129.983398,264.652771 
	C133.727432,264.777405 136.720261,265.074310 139.651016,264.771118 
	C141.159958,264.615051 142.558380,263.390320 144.006744,262.648499 
	C142.533096,261.749512 141.158859,260.375092 139.566849,260.042236 
	C135.104385,259.109222 130.552032,258.606171 126.035133,257.933472 
	C125.904114,257.624634 125.697762,257.379120 125.128647,256.858521 
	C124.553452,256.362335 124.265671,256.204437 123.977898,256.046570 
	C123.977898,256.046570 124.003540,256.003357 123.953171,255.679092 
	C123.223366,254.247589 122.543938,253.140350 121.864510,252.033112 
	C121.827171,250.617569 121.789833,249.202011 121.825867,246.942505 
	C121.767197,241.697723 121.635147,237.296906 121.503098,232.896103 
	C121.627876,231.847931 121.752655,230.799774 122.150238,229.190826 
	C122.920006,227.406815 123.416962,226.183578 123.913910,224.960342 
	C124.288971,224.619049 124.664032,224.277756 125.420883,223.597595 
	C126.056511,222.955841 126.310356,222.652954 126.564201,222.350082 
	C126.892006,222.278809 127.219818,222.207520 128.173218,221.972000 
	C137.544601,221.476761 146.290390,221.145767 155.036179,220.814774 
	C155.036179,220.814774 155.351517,221.059158 155.580963,221.550201 
	C155.830612,225.326340 155.850815,228.611450 155.871033,231.896561 
	C155.871033,231.896561 155.994034,231.977478 155.485260,231.982910 
	C149.898529,232.079132 144.812546,232.036255 139.747391,232.340286 
	C138.181091,232.434296 136.671448,233.472412 135.135880,234.078278 
	C135.135880,234.078293 135.045288,234.047562 134.715729,234.319000 
	C134.231003,237.196411 134.163391,239.811264 133.901077,242.406418 
	C133.458725,246.782776 135.618332,248.276474 139.708023,248.280212 
	C143.141693,248.283356 146.574951,248.720200 150.008392,248.965027 
	C150.008392,248.965027 150.301071,249.175812 150.633972,249.416763 
	C151.311615,249.771072 151.656357,249.884445 152.001083,249.997803 
	C152.214417,250.250931 152.427734,250.504044 152.972885,251.201462 
	C157.507187,257.779083 156.031952,264.406799 154.989594,270.996796 
	C154.989594,270.996796 154.767776,271.234161 154.458054,271.538086 
	C153.304184,272.819183 152.460052,273.796356 151.615906,274.773529 
	C151.615906,274.773529 151.269211,274.836670 150.799377,274.970581 
	C148.882584,275.713715 147.435608,276.322876 145.988632,276.932037 
	C140.631866,276.933746 135.275116,276.935455 129.052826,276.882019 
	C126.795952,276.902771 125.404602,276.978699 124.013260,277.054626 
	C119.741524,274.649170 122.693802,270.437561 121.736801,266.743317 
	C122.441994,265.601440 122.971664,264.963470 123.501343,264.325500 
z"/>
<path fill="#CC4441" opacity="1.000000" stroke="none" 
	d="
M360.925201,268.345886 
	C360.926575,270.292389 361.376831,272.001770 360.804260,273.237061 
	C360.138397,274.673462 358.609802,276.695618 357.398010,276.736023 
	C348.409424,277.035858 339.406006,276.854919 330.408356,276.941528 
	C327.622375,276.968384 326.489136,275.767517 326.492950,273.064056 
	C326.515808,256.743988 326.420685,240.422760 326.650909,224.105957 
	C326.667816,222.909348 328.824646,220.881424 330.176300,220.706528 
	C338.289825,219.656693 338.843201,220.298599 338.837982,228.626160 
	C338.834229,234.625137 338.835052,240.624100 338.834534,246.623077 
	C338.834045,252.337860 338.834412,258.052643 338.834412,264.477997 
	C345.144470,264.477997 350.914093,264.523254 356.682465,264.456726 
	C359.143005,264.428345 361.058777,264.838135 360.925201,268.345886 
z"/>
<path fill="#CD433F" opacity="1.000000" stroke="none" 
	d="
M280.022339,220.903137 
	C280.355774,221.703934 280.689240,222.504715 280.964844,224.048157 
	C280.674500,231.970749 280.676117,232.138489 273.639343,232.205704 
	C270.331146,232.237305 269.092041,233.546463 269.350250,236.639389 
	C269.826782,242.346603 270.668396,248.049301 270.710297,253.758636 
	C270.743713,258.311554 269.500244,262.863220 269.379639,267.430145 
	C269.147461,276.223785 269.310638,276.228088 261.011566,277.054535 
	C259.887512,276.292755 258.763428,275.530975 257.673462,274.000061 
	C257.761322,270.761353 258.029572,268.273132 257.817505,265.826569 
	C257.517059,262.359711 256.862518,258.923553 256.359283,255.474289 
	C256.359283,255.474289 256.293304,255.168793 256.238342,254.769623 
	C256.171906,253.964966 256.160370,253.559494 256.148834,253.154022 
	C256.148834,253.154022 256.014618,253.070648 256.442993,252.923584 
	C257.201904,249.844742 257.786407,246.915665 257.817963,243.980652 
	C257.937897,232.816284 257.871124,232.815567 246.961258,232.074249 
	C246.961258,232.074249 247.001373,232.016266 246.970306,231.565155 
	C246.978577,227.763184 247.017914,224.412338 247.057251,221.061478 
	C247.057266,221.061478 247.000610,221.000000 247.494461,221.018356 
	C258.666321,220.992188 269.344330,220.947662 280.022339,220.903137 
z"/>
<path fill="#CC413C" opacity="1.000000" stroke="none" 
	d="
M295.313629,255.619537 
	C295.203918,254.993256 295.094208,254.366974 295.413025,253.299072 
	C296.202087,249.138092 296.806213,245.423172 296.874573,241.698441 
	C297.038330,232.776245 296.935699,232.786911 288.303772,232.131287 
	C287.321259,232.056671 286.356781,231.744537 285.383942,231.542526 
	C285.336517,231.185013 285.289093,230.827484 285.269348,229.797119 
	C285.226715,227.430359 285.156433,225.736435 285.086121,224.042526 
	C285.260223,223.201889 285.434357,222.361237 286.289398,221.313232 
	C297.631805,221.090897 308.293274,221.075943 318.954742,221.060974 
	C319.066437,221.192596 319.178162,221.324188 319.325562,222.094711 
	C319.470001,225.541702 319.578796,228.349762 319.687622,231.157837 
	C319.570587,231.314545 319.453522,231.471252 318.742004,231.867706 
	C307.148315,232.535324 308.179108,230.066147 308.119080,242.300339 
	C308.108459,244.462692 307.907867,246.657104 308.212372,248.776749 
	C308.424286,250.251816 309.349915,251.624344 309.956696,253.042679 
	C310.011505,253.472870 310.066315,253.903076 309.936157,254.803207 
	C309.751221,255.273148 309.734589,255.730682 309.734589,255.730682 
	C309.734589,255.730682 309.949432,255.834305 309.484436,255.976746 
	C308.720184,262.755432 308.420929,269.391724 308.121704,276.027985 
	C308.121704,276.027985 308.018707,276.054840 307.786499,276.135986 
	C307.231171,276.345581 307.023041,276.577362 306.929932,276.912445 
	C306.495422,276.908844 306.060944,276.905243 304.885193,276.822205 
	C302.115723,276.785797 300.087494,276.828796 298.059235,276.871765 
	C297.801544,276.696564 297.555725,276.506042 297.170776,275.677795 
	C296.990204,270.151123 297.088196,265.240845 296.858124,260.345917 
	C296.783081,258.749817 295.852783,257.193848 295.313629,255.619537 
z"/>
<path fill="#F8D4D5" opacity="1.000000" stroke="none" 
	d="
M284.696899,224.046738 
	C285.156433,225.736435 285.226715,227.430359 285.194214,229.536957 
	C281.453796,232.757172 277.659119,234.989090 272.723206,234.204620 
	C272.283417,234.134750 271.009827,235.845352 271.069550,236.659668 
	C271.462219,242.015778 272.122009,247.352081 272.674438,252.696930 
	C272.758392,253.509033 272.841614,254.344162 272.747772,255.147919 
	C272.178558,260.023224 271.213348,264.879639 271.031281,269.766663 
	C270.720825,278.100922 270.281769,278.645721 261.294006,277.338989 
	C269.310638,276.228088 269.147461,276.223785 269.379639,267.430145 
	C269.500244,262.863220 270.743713,258.311554 270.710297,253.758636 
	C270.668396,248.049301 269.826782,242.346603 269.350250,236.639389 
	C269.092041,233.546463 270.331146,232.237305 273.639343,232.205704 
	C280.676117,232.138489 280.674500,231.970749 281.055664,224.368225 
	C282.238770,223.980743 283.273224,224.015839 284.696899,224.046738 
z"/>
<path fill="#FAD9D9" opacity="1.000000" stroke="none" 
	d="
M185.142395,222.082031 
	C185.588852,229.547272 185.679337,237.177277 185.810059,244.806610 
	C185.894058,249.709610 182.196075,247.948914 179.739380,248.233200 
	C177.001404,248.550018 174.922638,248.230286 175.009125,244.455551 
	C175.180237,236.988602 174.952301,229.512497 174.835907,221.582626 
	C175.510010,222.497711 176.805435,223.846054 176.865356,225.247238 
	C177.106720,230.889191 176.994064,236.547653 176.954453,242.199600 
	C176.936325,244.786423 176.657333,247.121979 180.607117,247.074295 
	C184.724670,247.024567 183.947952,244.373672 184.038986,241.975983 
	C184.288681,235.399307 184.547974,228.822998 185.142395,222.082031 
z"/>
<path fill="#FAD9D9" opacity="1.000000" stroke="none" 
	d="
M220.095871,264.354736 
	C216.233063,264.912109 217.392609,261.938141 217.376602,260.178040 
	C217.278687,249.417435 217.342361,238.655457 217.324020,227.893967 
	C217.320633,225.911255 217.188431,223.928787 217.048676,221.482239 
	C217.660629,222.092621 218.339615,223.166946 219.015045,225.087708 
	C219.026962,237.290634 219.042435,248.647156 219.057907,260.003662 
	C219.053864,260.444519 219.049835,260.885345 219.158234,261.964050 
	C219.545731,263.186188 219.820801,263.770477 220.095871,264.354736 
z"/>
<path fill="#FAD9D9" opacity="1.000000" stroke="none" 
	d="
M126.062531,258.283997 
	C130.552032,258.606171 135.104385,259.109222 139.566849,260.042236 
	C141.158859,260.375092 142.533096,261.749512 144.006744,262.648499 
	C142.558380,263.390320 141.159958,264.615051 139.651016,264.771118 
	C136.720261,265.074310 133.727432,264.777405 130.319244,264.547119 
	C128.615417,262.454926 127.352676,260.544739 126.062531,258.283997 
z"/>
<path fill="#FFFAFA" opacity="1.000000" stroke="none" 
	d="
M219.447556,259.905823 
	C219.042435,248.647156 219.026962,237.290634 219.028244,225.465515 
	C219.691666,225.797455 220.892532,226.592209 220.901016,227.399460 
	C221.009003,237.691193 220.961594,247.984848 220.880310,258.277435 
	C220.876282,258.790344 220.200317,259.297943 219.447556,259.905823 
z"/>
<path fill="#F4C3C3" opacity="1.000000" stroke="none" 
	d="
M318.878235,220.666611 
	C308.293274,221.075943 297.631805,221.090897 286.506104,221.075165 
	C286.835388,220.403580 287.622711,219.214310 288.423309,219.205307 
	C298.036316,219.097122 307.651489,219.147110 317.265411,219.231033 
	C317.780487,219.235519 318.289764,219.909775 318.878235,220.666611 
z"/>
<path fill="#F8D4D5" opacity="1.000000" stroke="none" 
	d="
M279.928497,220.513992 
	C269.344330,220.947662 258.666321,220.992188 247.524597,221.047424 
	C247.827850,220.390366 248.587921,219.151031 249.362839,219.141693 
	C258.988037,219.025604 268.615540,219.072220 278.241882,219.148590 
	C278.775360,219.152832 279.303833,219.784973 279.928497,220.513992 
z"/>
<path fill="#FAD9D9" opacity="1.000000" stroke="none" 
	d="
M205.726166,221.121033 
	C206.056458,229.722092 206.041367,238.370377 205.847565,247.014679 
	C205.804947,248.916321 205.127655,250.803757 204.378662,252.856384 
	C204.016739,244.043411 203.954285,235.070862 204.079178,226.100937 
	C204.102158,224.450821 204.884613,222.811264 205.726166,221.121033 
z"/>
<path fill="#FAD9D9" opacity="1.000000" stroke="none" 
	d="
M199.017532,252.523804 
	C198.416229,251.059494 197.381424,249.140686 197.324020,247.193085 
	C197.076401,238.791428 197.115173,230.381363 196.998032,221.511261 
	C197.628052,222.457382 198.869186,223.854385 198.900223,225.277756 
	C199.094803,234.200577 199.019669,243.129288 199.017532,252.523804 
z"/>
<path fill="#FAD9D9" opacity="1.000000" stroke="none" 
	d="
M163.550415,221.053833 
	C163.842712,229.347824 163.779053,237.719223 163.595062,246.087982 
	C163.552765,248.011337 163.097137,249.925613 162.520370,252.097260 
	C162.137024,242.951492 162.029358,233.552475 162.044800,224.153671 
	C162.046463,223.145264 162.764832,222.138062 163.550415,221.053833 
z"/>
<path fill="#F4C3C3" opacity="1.000000" stroke="none" 
	d="
M285.393158,231.945221 
	C286.356781,231.744537 287.321259,232.056671 288.303772,232.131287 
	C296.935699,232.786911 297.038330,232.776245 296.874573,241.698441 
	C296.806213,245.423172 296.202087,249.138092 295.464417,252.982742 
	C295.087280,246.980362 295.087280,240.852722 295.087280,234.929535 
	C291.499237,233.973099 288.450806,233.160507 285.393158,231.945221 
z"/>
<path fill="#F8D4D5" opacity="1.000000" stroke="none" 
	d="
M247.043243,232.463684 
	C257.871124,232.815567 257.937897,232.816284 257.817963,243.980652 
	C257.786407,246.915665 257.201904,249.844742 256.517334,252.950043 
	C256.130219,248.373123 255.842453,243.606537 256.142578,238.877243 
	C256.393402,234.924820 254.982010,233.540009 251.124008,233.903748 
	C249.835556,234.025208 248.460632,233.229523 247.043243,232.463684 
z"/>
<path fill="#FAD9D9" opacity="1.000000" stroke="none" 
	d="
M241.106201,252.357361 
	C240.681274,251.148239 239.922501,249.490784 239.886963,247.817947 
	C239.743179,241.051025 239.825592,234.279388 239.817734,227.509491 
	C239.810150,220.989746 239.806488,220.991867 233.334671,220.997345 
	C232.179077,220.998322 231.023468,220.973724 229.414917,220.895020 
	C232.250916,220.386444 235.631058,219.338318 238.781891,219.812820 
	C239.966003,219.991150 241.344452,223.689240 241.385406,225.806839 
	C241.553574,234.500153 241.240723,243.202744 241.106201,252.357361 
z"/>
<path fill="#F4C3C3" opacity="1.000000" stroke="none" 
	d="
M309.985718,252.572021 
	C309.349915,251.624344 308.424286,250.251816 308.212372,248.776749 
	C307.907867,246.657104 308.108459,244.462692 308.119080,242.300339 
	C308.179108,230.066147 307.148315,232.535324 318.604065,232.126663 
	C317.552765,232.738495 316.002289,233.916489 314.545258,233.810440 
	C310.680725,233.529144 309.657227,235.151215 309.872864,238.722870 
	C310.141296,243.169022 309.986694,247.640701 309.985718,252.572021 
z"/>
<path fill="#FAD9D9" opacity="1.000000" stroke="none" 
	d="
M154.931641,220.431641 
	C146.290390,221.145767 137.544601,221.476761 128.380768,221.825287 
	C128.613953,221.205231 129.259430,220.020035 129.917267,220.013138 
	C138.219498,219.926117 146.523529,220.009003 154.931641,220.431641 
z"/>
<path fill="#FAD9D9" opacity="1.000000" stroke="none" 
	d="
M161.450592,253.033691 
	C162.433914,260.347260 163.069687,267.736877 163.666077,275.597656 
	C163.149445,275.670593 162.299469,275.313141 162.250717,274.867981 
	C161.497131,267.984741 160.833298,261.091370 160.217484,254.194214 
	C160.187790,253.861725 160.793304,253.472519 161.450592,253.033691 
z"/>
<path fill="#FAD9D9" opacity="1.000000" stroke="none" 
	d="
M227.919769,221.309906 
	C228.208725,234.046982 228.163010,246.974396 227.954071,259.899170 
	C227.928421,261.485840 227.029800,263.058411 226.259216,264.110229 
	C226.013489,263.069336 226.044250,262.555695 226.075012,262.042053 
	C226.365707,260.127930 226.868362,258.218689 226.912384,256.298920 
	C227.178284,244.700439 227.339325,233.099533 227.919769,221.309906 
z"/>
<path fill="#FAD9D9" opacity="1.000000" stroke="none" 
	d="
M197.568237,275.926575 
	C197.200760,270.952789 197.045425,265.872498 197.310318,260.814178 
	C197.434341,258.446136 198.369766,256.120544 198.973145,253.387299 
	C199.596878,253.447266 200.722672,253.935852 200.692596,254.337997 
	C200.209091,260.802765 199.604645,267.259216 198.944763,273.709076 
	C198.869781,274.441895 198.295349,275.123627 197.568237,275.926575 
z"/>
<path fill="#FAD9D9" opacity="1.000000" stroke="none" 
	d="
M183.916809,260.893250 
	C184.499954,261.041748 185.530136,261.547577 185.649475,262.216034 
	C185.933456,263.806702 185.813965,265.474304 185.809555,267.110748 
	C185.778763,278.554749 185.286789,276.497894 195.538391,276.876709 
	C187.023422,280.393646 184.046432,278.467285 184.032150,269.252167 
	C184.028061,266.609589 183.978500,263.967102 183.916809,260.893250 
z"/>
<path fill="#FAD9D9" opacity="1.000000" stroke="none" 
	d="
M155.366852,270.937561 
	C156.031952,264.406799 157.507187,257.779083 153.205750,251.295807 
	C153.884476,251.139038 154.908432,251.082001 155.400040,251.565842 
	C158.718643,254.832031 158.871429,266.906189 155.366852,270.937561 
z"/>
<path fill="#FAD9D9" opacity="1.000000" stroke="none" 
	d="
M135.594543,234.074631 
	C136.671448,233.472412 138.181091,232.434296 139.747391,232.340286 
	C144.812546,232.036255 149.898529,232.079132 155.434204,231.929840 
	C154.686493,232.572403 153.506699,233.821915 152.271149,233.879715 
	C146.873993,234.132202 141.460663,234.038818 135.594543,234.074631 
z"/>
<path fill="#F4C3C3" opacity="1.000000" stroke="none" 
	d="
M308.504730,275.929047 
	C308.420929,269.391724 308.720184,262.755432 309.369446,255.945114 
	C309.442230,262.457397 309.165009,269.143768 308.504730,275.929047 
z"/>
<path fill="#F4C3C3" opacity="1.000000" stroke="none" 
	d="
M295.223877,256.109558 
	C295.852783,257.193848 296.783081,258.749817 296.858124,260.345917 
	C297.088196,265.240845 296.990204,270.151123 296.997131,275.521851 
	C296.345062,274.676910 295.224640,273.384430 295.173248,272.050781 
	C294.974884,266.907532 295.118134,261.751099 295.223877,256.109558 
z"/>
<path fill="#FAD9D9" opacity="1.000000" stroke="none" 
	d="
M149.916748,248.573853 
	C146.574951,248.720200 143.141693,248.283356 139.708023,248.280212 
	C135.618332,248.276474 133.458725,246.782776 133.901077,242.406418 
	C134.163391,239.811264 134.231003,237.196411 134.734924,234.362793 
	C135.065964,235.459335 135.032837,236.783478 135.033157,238.107635 
	C135.034622,244.143372 135.794724,247.871307 143.833832,247.082062 
	C145.776184,246.891357 147.825150,247.786713 149.916748,248.573853 
z"/>
<path fill="#F8D4D5" opacity="1.000000" stroke="none" 
	d="
M256.269043,255.975403 
	C256.862518,258.923553 257.517059,262.359711 257.817505,265.826569 
	C258.029572,268.273132 257.761322,270.761353 257.511292,273.670593 
	C256.898285,270.353943 256.389954,266.604614 256.100708,262.838531 
	C255.938980,260.732269 256.140808,258.598083 256.269043,255.975403 
z"/>
<path fill="#FAD9D9" opacity="1.000000" stroke="none" 
	d="
M175.430389,275.915375 
	C175.047821,271.903015 175.099075,267.810577 175.054428,263.719177 
	C175.030304,261.507690 175.306091,259.695709 178.586487,260.233704 
	C178.302734,262.083923 177.335526,263.715210 177.030746,265.462128 
	C176.433441,268.885956 176.205246,272.374146 175.430389,275.915375 
z"/>
<path fill="#FAD9D9" opacity="1.000000" stroke="none" 
	d="
M204.155426,256.080841 
	C204.788620,257.498657 205.463501,259.377289 205.878998,261.311615 
	C206.653061,264.915161 207.276154,268.551117 208.046875,272.551392 
	C203.081757,271.916443 205.121460,267.367065 204.194000,264.460480 
	C203.428467,262.061432 204.064896,259.214966 204.155426,256.080841 
z"/>
<path fill="#FAD9D9" opacity="1.000000" stroke="none" 
	d="
M121.161285,232.941620 
	C121.635147,237.296906 121.767197,241.697723 121.721962,246.530975 
	C120.095169,244.928467 117.724365,243.155273 120.420258,240.250000 
	C120.903160,239.729599 119.821953,237.960022 119.878433,236.787216 
	C119.940025,235.508377 120.485123,234.252823 121.161285,232.941620 
z"/>
<path fill="#FAD9D9" opacity="1.000000" stroke="none" 
	d="
M213.093292,276.429504 
	C220.066635,275.697388 227.135544,275.356506 234.593430,274.985840 
	C234.704849,275.516083 234.437820,276.559021 234.148193,276.565369 
	C227.163193,276.717682 220.175797,276.759186 213.093292,276.429504 
z"/>
<path fill="#F8D4D5" opacity="1.000000" stroke="none" 
	d="
M246.660675,221.115845 
	C247.017914,224.412338 246.978577,227.763184 246.936127,231.573746 
	C243.490250,228.610626 244.714600,224.900436 246.660675,221.115845 
z"/>
<path fill="#FAD9D9" opacity="1.000000" stroke="none" 
	d="
M156.275360,231.859131 
	C155.850815,228.611450 155.830612,225.326340 155.774979,221.596527 
	C159.805695,224.377808 158.305008,228.094269 156.275360,231.859131 
z"/>
<path fill="#FAD9D9" opacity="1.000000" stroke="none" 
	d="
M173.937469,220.409302 
	C170.994598,220.849716 167.944763,220.919907 164.438599,220.973602 
	C166.954056,217.315323 170.413010,218.899460 173.937469,220.409302 
z"/>
<path fill="#FAD9D9" opacity="1.000000" stroke="none" 
	d="
M196.894562,220.660706 
	C193.914688,220.996246 190.875839,220.938995 187.387512,220.788574 
	C190.115295,217.729385 193.453613,218.493469 196.894562,220.660706 
z"/>
<path fill="#FAD9D9" opacity="1.000000" stroke="none" 
	d="
M216.911514,220.629440 
	C213.936600,220.990677 210.890625,220.962738 207.395279,220.841156 
	C210.094833,217.667007 213.447372,218.558487 216.911514,220.629440 
z"/>
<path fill="#F4C3C3" opacity="1.000000" stroke="none" 
	d="
M319.978699,230.956635 
	C319.578796,228.349762 319.470001,225.541702 319.502686,222.283554 
	C319.852753,224.807465 320.061279,227.781448 319.978699,230.956635 
z"/>
<path fill="#FAD9D9" opacity="1.000000" stroke="none" 
	d="
M240.462006,264.702484 
	C240.512955,261.247253 240.826935,257.503571 241.170502,253.333313 
	C241.733429,253.584793 242.802856,254.347809 242.711075,254.926773 
	C242.205841,258.114044 241.416748,261.256317 240.462006,264.702484 
z"/>
<path fill="#FFF8FA" opacity="1.000000" stroke="none" 
	d="
M225.632355,262.026611 
	C226.044250,262.555695 226.013489,263.069336 225.949707,263.968292 
	C224.251831,264.390289 222.586975,264.427002 220.508987,264.409241 
	C219.820801,263.770477 219.545731,263.186188 219.170135,262.294556 
	C221.109634,261.995148 223.149673,262.003143 225.632355,262.026611 
z"/>
<path fill="#FAD9D9" opacity="1.000000" stroke="none" 
	d="
M164.309616,277.077850 
	C167.109650,276.736694 170.101395,276.757538 173.539948,276.841675 
	C170.824951,277.083221 167.663132,277.261536 164.309616,277.077850 
z"/>
<path fill="#FAD9D9" opacity="1.000000" stroke="none" 
	d="
M146.184235,277.206787 
	C147.435608,276.322876 148.882584,275.713715 150.676636,275.097015 
	C149.475769,275.886841 147.927811,276.684174 146.184235,277.206787 
z"/>
<path fill="#FAD9D9" opacity="1.000000" stroke="none" 
	d="
M121.629906,252.226746 
	C122.543938,253.140350 123.223366,254.247589 123.930191,255.689133 
	C123.103485,254.822418 122.249397,253.621399 121.629906,252.226746 
z"/>
<path fill="#FAD9D9" opacity="1.000000" stroke="none" 
	d="
M123.595543,224.998962 
	C123.416962,226.183578 122.920006,227.406815 122.136108,228.793747 
	C122.325165,227.650833 122.801170,226.344208 123.595543,224.998962 
z"/>
<path fill="#F4C3C3" opacity="1.000000" stroke="none" 
	d="
M298.276917,277.183044 
	C300.087494,276.828796 302.115723,276.785797 304.562378,276.868134 
	C302.818756,277.160400 300.656677,277.327332 298.276917,277.183044 
z"/>
<path fill="#FAD9D9" opacity="1.000000" stroke="none" 
	d="
M152.006348,274.822968 
	C152.460052,273.796356 153.304184,272.819183 154.442017,271.699738 
	C153.956070,272.662445 153.176437,273.767426 152.006348,274.822968 
z"/>
<path fill="#FAD9D9" opacity="1.000000" stroke="none" 
	d="
M239.565369,270.003784 
	C239.355927,269.187195 239.452301,268.312164 239.804977,267.224915 
	C239.997910,267.990204 239.934540,268.967773 239.565369,270.003784 
z"/>
<path fill="#FAD9D9" opacity="1.000000" stroke="none" 
	d="
M124.238754,277.321167 
	C125.404602,276.978699 126.795952,276.902771 128.589233,276.952606 
	C127.482185,277.248138 125.973213,277.417908 124.238754,277.321167 
z"/>
<path fill="#F8D4D5" opacity="1.000000" stroke="none" 
	d="
M255.843704,253.131653 
	C256.160370,253.559494 256.171906,253.964966 256.119202,254.668488 
	C255.537506,254.736481 255.019974,254.506393 254.502472,254.276306 
	C254.847839,253.887299 255.193207,253.498291 255.843704,253.131653 
z"/>
<path fill="#FAD9D9" opacity="1.000000" stroke="none" 
	d="
M123.099312,264.252655 
	C122.971664,264.963470 122.441994,265.601440 121.638931,266.389954 
	C121.809456,265.753632 122.253372,264.966705 123.099312,264.252655 
z"/>
<path fill="#FAD9D9" opacity="1.000000" stroke="none" 
	d="
M209.090256,274.256927 
	C209.795380,274.269409 210.529129,274.658997 211.429688,275.319366 
	C210.770645,275.271423 209.944748,274.952759 209.090256,274.256927 
z"/>
<path fill="#FAD9D9" opacity="1.000000" stroke="none" 
	d="
M235.813278,274.729553 
	C235.841995,274.263916 236.187881,273.807739 236.820984,273.300659 
	C236.782288,273.746185 236.456375,274.242615 235.813278,274.729553 
z"/>
<path fill="#FAD9D9" opacity="1.000000" stroke="none" 
	d="
M238.396698,271.938843 
	C238.275558,271.741058 238.380188,271.427216 238.717621,271.006226 
	C238.841110,271.206970 238.731796,271.514893 238.396698,271.938843 
z"/>
<path fill="#F4C3C3" opacity="1.000000" stroke="none" 
	d="
M307.188263,276.929413 
	C307.023041,276.577362 307.231171,276.345581 307.792969,276.188782 
	C307.836639,276.422455 307.641602,276.684418 307.188263,276.929413 
z"/>
<path fill="#FAD9D9" opacity="1.000000" stroke="none" 
	d="
M124.051025,256.286163 
	C124.265671,256.204437 124.553452,256.362335 124.902855,256.767700 
	C124.684380,256.852051 124.404274,256.688904 124.051025,256.286163 
z"/>
<path fill="#FAD9D9" opacity="1.000000" stroke="none" 
	d="
M126.221931,222.350113 
	C126.310356,222.652954 126.056511,222.955841 125.518883,223.359436 
	C125.449951,223.090149 125.664803,222.720139 126.221931,222.350113 
z"/>
<path fill="#FAD9D9" opacity="1.000000" stroke="none" 
	d="
M151.869537,249.739761 
	C151.656357,249.884445 151.311615,249.771072 150.814209,249.423340 
	C151.020370,249.286560 151.379181,249.384140 151.869537,249.739761 
z"/>
<path fill="#F4C3C3" opacity="1.000000" stroke="none" 
	d="
M309.936340,255.772247 
	C309.734589,255.730682 309.751221,255.273148 309.929413,255.129364 
	C310.231293,255.189102 310.362946,255.388901 310.462769,255.603546 
	C310.470306,255.619812 310.251617,255.741257 309.936340,255.772247 
z"/>
<path fill="#FEF8F8" opacity="1.000000" stroke="none" 
	d="
M98.426910,175.468811 
	C99.507301,178.653214 100.486061,181.456589 101.538963,184.472305 
	C100.752159,184.579605 100.205307,184.839493 99.872093,184.672653 
	C90.362679,179.911713 80.132545,180.719666 70.015404,180.841080 
	C63.117638,180.923874 58.098228,185.871475 57.697449,192.670273 
	C57.389034,197.902176 61.413803,201.720383 68.275139,203.112595 
	C73.958397,204.265732 80.017059,204.836655 85.097374,207.324036 
	C89.836655,209.644455 93.535622,214.116226 97.637505,217.703903 
	C101.259506,220.871841 102.468231,224.824280 102.145302,229.678345 
	C101.747971,235.650955 102.236862,241.679260 101.943443,247.663925 
	C101.848549,249.599487 100.952034,251.906433 99.634735,253.298141 
	C94.716057,258.494720 89.591446,263.516296 84.272560,268.301697 
	C82.724823,269.694214 80.285416,270.773743 78.231567,270.813934 
	C66.238037,271.048859 54.236736,270.854034 42.240158,270.989563 
	C39.259403,271.023254 37.731327,270.061371 36.880779,267.129333 
	C34.952236,260.481232 32.704227,253.925812 30.335039,246.551193 
	C32.702347,247.126801 34.549828,247.228149 36.054520,247.998795 
	C45.263035,252.715042 55.162113,251.772400 64.933846,251.619583 
	C70.493706,251.532639 75.412766,247.254715 76.771782,241.931808 
	C78.415375,235.494278 76.495537,228.425156 71.370071,226.294449 
	C66.399345,224.228073 60.889431,223.118607 55.509270,222.449158 
	C44.820457,221.119141 40.221851,212.032486 33.538830,205.706741 
	C32.214531,204.453232 33.131256,200.934113 32.827454,198.482956 
	C31.471338,187.541565 34.863674,179.557480 43.387226,171.492599 
	C50.973469,164.314590 57.893929,161.274719 67.776314,162.134476 
	C75.053688,162.767609 82.439041,162.482880 89.758011,162.174103 
	C93.257172,162.026459 94.988930,163.221054 95.794685,166.474136 
	C96.513504,169.376221 97.472351,172.218872 98.426910,175.468811 
z"/>
<path fill="#FDEAEA" opacity="1.000000" stroke="none" 
	d="
M181.840790,160.170441 
	C183.300262,161.169937 184.901306,162.023010 185.178497,163.190430 
	C185.661362,165.224152 185.341156,167.451675 185.334564,169.597900 
	C185.315399,175.841370 183.024292,178.100632 177.350891,175.683807 
	C172.337265,173.548050 175.943741,168.118484 175.266586,164.239975 
	C175.063858,163.078674 176.765137,161.287018 178.001297,160.288025 
	C178.703842,159.720261 180.230743,160.172577 181.840790,160.170441 
z"/>
<path fill="#F6D5D4" opacity="1.000000" stroke="none" 
	d="
M180.764709,192.761337 
	C178.876404,192.761154 177.407074,192.761154 174.510391,192.761154 
	C175.426132,190.541626 175.966797,187.829849 176.663330,187.789215 
	C179.457184,187.626175 183.685211,187.285843 184.829300,188.863235 
	C187.070801,191.953781 184.034637,192.864334 180.764709,192.761337 
z"/>
</svg>